<svg width="25" height="24" viewBox="0 0 25 24" fill="none" xmlns="http://www.w3.org/2000/svg">
<path d="M16.5 15.62C17.1186 15.62 17.62 15.1186 17.62 14.5C17.62 13.8814 17.1186 13.38 16.5 13.38C15.8814 13.38 15.38 13.8814 15.38 14.5C15.38 15.1186 15.8814 15.62 16.5 15.62Z" fill="#F2F2F2"/>
<path fill-rule="evenodd" clip-rule="evenodd" d="M16.5 16.5C15.77 16.5 14.31 16.86 14.26 17.58C14.76 18.29 15.58 18.75 16.5 18.75C17.42 18.75 18.24 18.29 18.74 17.58C18.69 16.86 17.23 16.5 16.5 16.5Z" fill="#F2F2F2"/>
<path fill-rule="evenodd" clip-rule="evenodd" d="M17.5 10.09V5.27L10 2L2.5 5.27V10.18C2.5 14.72 5.7 18.97 10 20C10.55 19.87 11.08 19.68 11.6 19.45C12.68 20.99 14.47 22 16.5 22C19.81 22 22.5 19.31 22.5 16C22.5 13.03 20.34 10.57 17.5 10.09ZM10.5 16C10.5 16.56 10.58 17.11 10.73 17.62C10.49 17.73 10.25 17.84 10 17.92C6.83 16.92 4.5 13.68 4.5 10.18V6.58L10 4.18L15.5 6.58V10.09C12.66 10.57 10.5 13.03 10.5 16ZM16.5 20C14.29 20 12.5 18.21 12.5 16C12.5 13.79 14.29 12 16.5 12C18.71 12 20.5 13.79 20.5 16C20.5 18.21 18.71 20 16.5 20Z" fill="#F2F2F2"/>
</svg>
