<svg width="257" height="128" viewBox="0 0 257 128" fill="none" xmlns="http://www.w3.org/2000/svg">
<path d="M116.064 58.5327C116.064 57.8782 115.87 57.2384 115.506 56.6942C115.143 56.1501 114.626 55.7259 114.021 55.4755C113.417 55.225 112.751 55.1595 112.11 55.2872C111.468 55.4149 110.878 55.73 110.415 56.1928C109.952 56.6556 109.637 57.2452 109.51 57.8871C109.382 58.529 109.447 59.1943 109.698 59.799C109.948 60.4036 110.373 60.9205 110.917 61.2841C111.461 61.6477 112.101 61.8417 112.755 61.8417C113.633 61.8417 114.474 61.4931 115.095 60.8725C115.716 60.252 116.064 59.4103 116.064 58.5327Z" fill="#204C83"/>
<path d="M36.7883 83.71C34.3738 83.6987 32.0021 83.0711 29.898 81.8867C27.7939 80.7023 26.0271 79.0002 24.7649 76.9419C23.5027 74.8835 22.7869 72.5369 22.6854 70.1245C22.5839 67.7121 23.1001 65.3137 24.1849 63.1566C25.2698 60.9995 26.8874 59.1551 28.8846 57.7981C30.8818 56.4411 33.1923 55.6166 35.5974 55.4025C38.0024 55.1885 40.4223 55.592 42.6277 56.5749C44.8332 57.5579 46.7511 59.0876 48.1999 61.0192L52.3504 56.8309C49.8501 53.7393 46.4891 51.4587 42.6926 50.2776C38.896 49.0965 34.8344 49.0678 31.0216 50.1954C27.2088 51.3229 23.816 53.5559 21.2724 56.6119C18.7288 59.6679 17.1488 63.4097 16.7321 67.3638C16.3153 71.318 17.0807 75.3069 18.9313 78.826C20.782 82.3451 23.6347 85.2363 27.1288 87.1339C30.6228 89.0315 34.6011 89.8501 38.5605 89.4864C42.5199 89.1226 46.2824 87.5928 49.3722 85.0903C49.7504 84.7878 50.1097 84.4758 50.4595 84.1449L46.2995 79.9849C43.6994 82.361 40.3105 83.6883 36.7883 83.71Z" fill="#204C83"/>
<path d="M131.683 63.7705H131.522C129.867 63.7807 128.228 64.1014 126.691 64.7159V64.4985H120.82V87.5012H126.492V71.4286C129.414 68.6962 133.64 68.3181 135.947 70.4831C137.148 71.646 137.478 73.7355 137.469 76.1558V87.5012H143.142V75.7965C143.142 71.8162 142.064 68.7246 139.927 66.6163C138.818 65.6075 137.515 64.835 136.098 64.3457C134.68 63.8565 133.178 63.6608 131.683 63.7705Z" fill="#204C83"/>
<path d="M70.087 66.0963C68.2693 64.9246 66.1694 64.2645 64.0082 64.1851C61.8471 64.1058 59.7045 64.6102 57.8057 65.6454C55.9069 66.6805 54.3221 68.2082 53.218 70.0677C52.1138 71.9273 51.5311 74.0499 51.5311 76.2126C51.5311 78.3752 52.1138 80.4978 53.218 82.3574C54.3221 84.2169 55.9069 85.7446 57.8057 86.7797C59.7045 87.8149 61.8471 88.3193 64.0082 88.24C66.1694 88.1607 68.2693 87.5005 70.087 86.3288V87.4917H75.9866V64.5079H70.087V66.0963ZM63.6013 82.3674C62.3821 82.3693 61.1897 82.0096 60.175 81.3338C59.1602 80.658 58.3686 79.6965 57.9004 78.5708C57.4321 77.4452 57.3081 76.2059 57.5441 75.0098C57.7801 73.8137 58.3655 72.7144 59.2263 71.851C60.0871 70.9875 61.1846 70.3988 62.3799 70.1591C63.5753 69.9194 64.815 70.0396 65.9421 70.5044C67.0692 70.9692 68.0331 71.7579 68.712 72.7705C69.3909 73.7832 69.7543 74.9745 69.7561 76.1936C69.7537 77.827 69.105 79.393 67.9518 80.5497C66.7986 81.7065 65.2346 82.3599 63.6013 82.3674Z" fill="#204C83"/>
<path d="M165.294 65.8599C163.343 64.6232 161.08 63.9673 158.77 63.969C156.864 63.9649 154.983 64.4042 153.275 65.2524C151.568 66.1005 150.081 67.3341 148.933 68.8558C147.785 70.3774 147.006 72.1453 146.658 74.0197C146.311 75.8942 146.404 77.8237 146.931 79.6558C147.458 81.488 148.404 83.1724 149.693 84.5761C150.983 85.9798 152.582 87.0642 154.363 87.7436C156.144 88.423 158.059 88.6787 159.956 88.4906C161.853 88.3025 163.681 87.6757 165.294 86.6597V87.6052C165.23 89.2639 164.526 90.8335 163.33 91.9845C162.134 93.1355 160.539 93.7785 158.879 93.7785C157.219 93.7785 155.623 93.1355 154.427 91.9845C153.231 90.8335 152.528 89.2639 152.464 87.6052H146.593C146.571 90.8649 147.846 93.9996 150.136 96.3196C152.426 98.6397 155.543 99.9551 158.803 99.9764C162.063 99.9977 165.198 98.7232 167.518 96.4333C169.838 94.1434 171.153 91.0256 171.174 87.7659V64.5079H165.303L165.294 65.8599ZM158.77 82.6605C157.5 82.6605 156.259 82.284 155.204 81.5786C154.148 80.8732 153.325 79.8706 152.839 78.6976C152.353 77.5245 152.226 76.2338 152.474 74.9885C152.722 73.7432 153.333 72.5994 154.231 71.7016C155.129 70.8038 156.272 70.1924 157.518 69.9447C158.763 69.697 160.054 69.8241 161.227 70.31C162.4 70.7959 163.402 71.6187 164.108 72.6744C164.813 73.7301 165.19 74.9712 165.19 76.2409C165.187 77.9418 164.51 79.5723 163.306 80.7741C162.102 81.976 160.471 82.651 158.77 82.651V82.6605Z" fill="#204C83"/>
<path d="M104.946 52.6804H99.0745V87.4917H104.946V52.6804Z" fill="#204C83"/>
<path d="M115.695 64.4984H109.824V87.4823H115.695V64.4984Z" fill="#204C83"/>
<path d="M184.288 56.4338H178.416V64.2904H175.003V70.1617H178.416V87.5012H184.288V70.1617H187.701V64.2904H184.288V56.4338Z" fill="#204C83"/>
<path d="M86.7837 64.4984H80.9125V87.4917H86.7837V64.4984Z" fill="#204C83"/>
<path d="M91.8135 72.9791C94.278 72.9791 96.276 70.9812 96.276 68.5166C96.276 66.052 94.278 64.0541 91.8135 64.0541C89.3489 64.0541 87.351 66.052 87.351 68.5166C87.351 70.9812 89.3489 72.9791 91.8135 72.9791Z" fill="#204C83"/>
<path d="M201.618 63.8555C199.187 63.8555 196.811 64.5764 194.789 65.9269C192.768 67.2774 191.193 69.197 190.262 71.4429C189.332 73.6887 189.089 76.16 189.563 78.5442C190.037 80.9284 191.208 83.1184 192.927 84.8373C194.646 86.5562 196.836 87.7268 199.22 88.201C201.604 88.6752 204.075 88.4318 206.321 87.5016C208.567 86.5713 210.487 84.996 211.837 82.9748C213.188 80.9535 213.909 78.5772 213.909 76.1463C213.909 72.8866 212.614 69.7604 210.309 67.4554C208.004 65.1504 204.877 63.8555 201.618 63.8555ZM201.618 82.5565C200.348 82.5565 199.107 82.18 198.051 81.4746C196.996 80.7692 196.173 79.7666 195.687 78.5936C195.201 77.4205 195.074 76.1298 195.321 74.8845C195.569 73.6392 196.181 72.4954 197.078 71.5976C197.976 70.6998 199.12 70.0884 200.365 69.8407C201.611 69.593 202.901 69.7201 204.074 70.206C205.247 70.6919 206.25 71.5147 206.955 72.5704C207.661 73.6261 208.037 74.8672 208.037 76.1369C208.035 77.8387 207.358 79.4701 206.154 80.6735C204.951 81.8768 203.32 82.554 201.618 82.5565Z" fill="#204C83"/>
<path d="M236.108 66.7013C233.148 63.7799 229.272 63.865 228.005 63.865H227.844C226.188 63.8651 224.547 64.1862 223.013 64.8105V64.4985H217.123V87.5012H222.796V71.542C225.717 68.8097 229.943 68.4221 232.25 70.5966C233.441 71.75 233.782 73.8489 233.772 76.2693V87.4823H239.398V75.8816C239.322 71.854 238.235 68.8002 236.108 66.7013Z" fill="#204C83"/>
<path d="M137.961 0L133.319 29.3089C135.087 29.2332 136.864 29.186 138.651 29.186C140.249 29.186 141.828 29.186 143.378 29.29L139.199 0H137.961Z" fill="#5971A8"/>
<path d="M77.3291 14.1817L86.6512 41.7226C89.1377 40.4463 91.6905 39.2645 94.281 38.1677L78.4731 13.5861L77.3291 14.1817Z" fill="#5971A8"/>
<path d="M109.512 15.8363L110.968 32.5991C113.017 32.0885 115.087 31.6347 117.18 31.2376L110.703 15.5337L109.512 15.8363Z" fill="#5971A8"/>
<path d="M58.4108 40.5692L67.1656 54.3349C68.6279 53.1625 70.1501 52.0122 71.7321 50.884L59.3751 39.7845L58.4108 40.5692Z" fill="#5971A8"/>
<path d="M182.255 37.8179C185.035 38.9714 187.754 40.232 190.414 41.5997L200.237 14.2763L199.16 13.6996L182.255 37.8179Z" fill="#5971A8"/>
<path d="M205.598 50.9029C207.158 52.0374 208.68 53.2098 210.183 54.4105L218.891 40.4841L217.946 39.671L205.598 50.9029Z" fill="#5971A8"/>
<path d="M159.933 31.1998C162.041 31.5969 164.14 32.0507 166.211 32.5707L167.742 15.8079L166.513 15.5053L159.933 31.1998Z" fill="#5971A8"/>
<path d="M7.24213 120.913C3.78179 120.913 1.40871 118.133 1.40871 114.673C1.40871 111.212 3.78179 108.414 7.24213 108.414C8.04594 108.414 8.84169 108.574 9.58333 108.884C10.325 109.194 10.9978 109.648 11.5628 110.22L12.5839 109.217C11.8947 108.503 11.0676 107.936 10.1525 107.551C9.23753 107.165 8.25379 106.97 7.26103 106.977C3.01597 106.977 0 110.418 0 114.673C0 118.927 3.01597 122.369 7.26103 122.369C8.2533 122.372 9.23609 122.175 10.1506 121.79C11.0652 121.405 11.8927 120.84 12.5839 120.128L11.6385 119.107C11.0655 119.689 10.3806 120.149 9.62503 120.459C8.86946 120.77 8.05888 120.924 7.24213 120.913Z" fill="#5971A8"/>
<path d="M19.8261 122.369C20.5064 122.389 21.1839 122.274 21.8198 122.032C22.4556 121.789 23.0372 121.423 23.531 120.954C24.0248 120.486 24.4212 119.925 24.6972 119.303C24.9733 118.68 25.1236 118.01 25.1395 117.329V117.027C25.1395 115.62 24.5807 114.271 23.586 113.276C22.5913 112.282 21.2422 111.723 19.8355 111.723C18.4288 111.723 17.0797 112.282 16.085 113.276C15.0903 114.271 14.5315 115.62 14.5315 117.027C14.5076 117.706 14.6178 118.383 14.8558 119.019C15.0939 119.655 15.4551 120.238 15.9189 120.734C16.3826 121.23 16.9397 121.63 17.5583 121.91C18.1768 122.191 18.8447 122.347 19.5235 122.369H19.8261ZM19.8261 113.217C20.3141 113.196 20.8013 113.273 21.2599 113.441C21.7185 113.609 22.1394 113.866 22.4985 114.197C22.8577 114.528 23.1481 114.927 23.353 115.37C23.558 115.814 23.6735 116.293 23.6929 116.781V116.999C23.6929 118.024 23.2855 119.008 22.5603 119.733C21.8352 120.458 20.8516 120.865 19.8261 120.865C18.8005 120.865 17.8169 120.458 17.0918 119.733C16.3666 119.008 15.9592 118.024 15.9592 116.999C15.9504 116.511 16.0378 116.026 16.2165 115.572C16.3952 115.117 16.6616 114.703 17.0005 114.352C17.3394 114 17.7441 113.719 18.1916 113.525C18.6391 113.33 19.1206 113.225 19.6086 113.217H19.8261Z" fill="#5971A8"/>
<path d="M40.2666 111.761C39.4879 111.72 38.7143 111.909 38.042 112.304C37.3697 112.699 36.8282 113.283 36.4848 113.983C36.2081 113.286 35.7175 112.696 35.0837 112.297C34.4499 111.898 33.7056 111.71 32.9582 111.761C32.2843 111.771 31.6236 111.95 31.0359 112.28C30.4483 112.61 29.9522 113.082 29.5924 113.652V111.969H28.1365V122.132H29.583V116.611C29.5205 115.773 29.7931 114.945 30.3409 114.309C30.8888 113.672 31.667 113.28 32.5044 113.217H32.9488C34.5182 113.217 35.4069 114.37 35.4069 116.242V122.151H36.8629V116.611C36.8004 115.773 37.0731 114.945 37.6209 114.309C38.1687 113.672 38.9469 113.28 39.7844 113.217H40.2666C41.8265 113.217 42.7247 114.37 42.7247 116.242V122.151H44.1807V116.223C44.2185 113.463 42.7625 111.761 40.2666 111.761Z" fill="#5971A8"/>
<path d="M59.913 111.761C59.1343 111.72 58.3608 111.909 57.6885 112.304C57.0162 112.699 56.4747 113.283 56.1312 113.983C55.8563 113.287 55.3674 112.697 54.7352 112.298C54.103 111.898 53.3602 111.71 52.6142 111.761C51.9384 111.769 51.2755 111.946 50.6859 112.277C50.0964 112.607 49.5989 113.08 49.2389 113.652V111.969H47.8302V122.132H49.2862V116.611C49.2237 115.773 49.4963 114.945 50.0442 114.309C50.592 113.672 51.3702 113.28 52.2076 113.217H52.6614C54.2309 113.217 55.1196 114.37 55.1196 116.242V122.151H56.5756V116.611C56.5131 115.773 56.7857 114.945 57.3336 114.309C57.8814 113.672 58.6596 113.28 59.497 113.217H59.9414C61.5108 113.217 62.3996 114.37 62.3996 116.242V122.151H63.8556V116.223C63.9028 113.463 62.3901 111.761 59.913 111.761Z" fill="#5971A8"/>
<path d="M74.5863 120.478V122.151H76.0423V111.969H74.5863V117.547C74.6408 118.382 74.3618 119.204 73.8105 119.833C73.2592 120.463 72.4807 120.847 71.646 120.903C71.498 120.913 71.3496 120.913 71.2016 120.903C69.6322 120.903 68.7435 119.75 68.7435 117.887V111.969H67.2875V117.887C67.2875 120.648 68.7246 122.34 71.2016 122.34C71.8811 122.363 72.5541 122.202 73.1498 121.874C73.7454 121.546 74.2417 121.064 74.5863 120.478Z" fill="#5971A8"/>
<path d="M87.0662 116.223V122.132H88.4844V116.223C88.4844 113.463 87.0568 111.761 84.5797 111.761C83.899 111.743 83.226 111.909 82.6319 112.242C82.0379 112.575 81.5447 113.062 81.2044 113.652V111.969H79.7863V122.132H81.2423V116.611C81.1797 115.773 81.4524 114.945 82.0002 114.309C82.5481 113.672 83.3262 113.28 84.1637 113.217H84.6175C86.1775 113.198 87.0662 114.351 87.0662 116.223Z" fill="#5971A8"/>
<path d="M93.5709 111.978H92.1338V122.132H93.5709V111.978Z" fill="#5971A8"/>
<path d="M92.8713 109.236C93.1423 109.212 93.3929 109.083 93.5697 108.876C93.7464 108.669 93.8351 108.402 93.8168 108.13C93.8036 107.926 93.7307 107.731 93.6071 107.568C93.4835 107.405 93.3147 107.283 93.1217 107.215C92.9288 107.148 92.7203 107.139 92.5222 107.189C92.3242 107.24 92.1454 107.347 92.0082 107.499C91.871 107.65 91.7814 107.839 91.7507 108.041C91.72 108.243 91.7495 108.449 91.8355 108.635C91.9216 108.82 92.0603 108.976 92.2344 109.083C92.4085 109.19 92.6103 109.243 92.8146 109.236H92.8713Z" fill="#5971A8"/>
<path d="M99.4422 122.132V113.283H101.598V111.978H99.4422V108.168H97.9862V111.978H96.1615V113.283H97.9862V122.132H99.4422Z" fill="#5971A8"/>
<path d="M105.134 127.049H106.637L112.943 111.978H111.402L107.942 120.241L104.5 111.978H102.988L107.157 122.113L105.134 127.049Z" fill="#5971A8"/>
<path d="M130.606 114.521H122.38V107.657H120.943V122.633H122.38V115.873H130.606V122.633H132.033V107.657H130.606V114.521Z" fill="#5971A8"/>
<path d="M140.382 112.262C139.063 112.221 137.782 112.705 136.82 113.607C135.858 114.509 135.292 115.756 135.248 117.074C135.248 117.225 135.248 117.377 135.248 117.528C135.175 118.856 135.632 120.159 136.518 121.151C137.404 122.143 138.647 122.744 139.975 122.822H140.353C141.318 122.855 142.271 122.603 143.095 122.099C143.918 121.595 144.576 120.86 144.986 119.986C144.532 119.873 143.965 119.769 143.53 119.655C143.121 120.288 142.529 120.781 141.833 121.069C141.137 121.357 140.37 121.426 139.634 121.267C138.897 121.107 138.227 120.728 137.712 120.178C137.197 119.628 136.862 118.935 136.751 118.19H145.364V117.518C145.383 114.323 143.294 112.262 140.382 112.262ZM136.732 116.857C136.834 115.969 137.265 115.151 137.941 114.566C138.617 113.981 139.488 113.672 140.382 113.699C141.258 113.679 142.108 113.995 142.758 114.582C143.409 115.169 143.81 115.983 143.88 116.857H136.732Z" fill="#5971A8"/>
<path d="M156.624 114.153C156.201 113.547 155.634 113.058 154.973 112.727C154.313 112.397 153.58 112.237 152.842 112.262C151.512 112.216 150.218 112.7 149.245 113.608C148.272 114.515 147.699 115.772 147.652 117.102C147.643 117.244 147.643 117.386 147.652 117.528C147.593 118.873 148.069 120.186 148.977 121.18C149.884 122.174 151.148 122.768 152.493 122.832H152.795C153.539 122.846 154.274 122.674 154.934 122.332C155.594 121.991 156.159 121.49 156.577 120.875V122.614H158.08V112.517H156.624V114.153ZM152.842 121.395C151.864 121.418 150.916 121.051 150.207 120.376C149.498 119.7 149.085 118.771 149.061 117.793C149.056 117.704 149.056 117.616 149.061 117.528C149.014 116.571 149.35 115.636 149.994 114.926C150.637 114.217 151.536 113.793 152.493 113.746H152.842C153.845 113.746 154.807 114.145 155.517 114.854C156.226 115.563 156.624 116.525 156.624 117.528C156.679 118.496 156.347 119.447 155.702 120.172C155.057 120.897 154.151 121.336 153.183 121.395C153.054 121.404 152.924 121.404 152.795 121.395H152.842Z" fill="#5971A8"/>
<path d="M163.261 106.977H161.824V122.633H163.261V106.977Z" fill="#5971A8"/>
<path d="M169.123 108.678H167.667V112.479H165.842V113.784H167.667V122.633H169.123V113.784H171.279V112.479H169.123V108.678Z" fill="#5971A8"/>
<path d="M178.729 112.262C178.05 112.246 177.379 112.413 176.787 112.745C176.194 113.078 175.703 113.564 175.363 114.153V106.977H173.907V122.633H175.363V117.093C175.301 116.255 175.573 115.427 176.121 114.791C176.669 114.154 177.447 113.762 178.285 113.699C178.433 113.689 178.581 113.689 178.729 113.699C180.298 113.699 181.187 114.852 181.187 116.724V122.633H182.662V116.724C182.662 113.963 181.215 112.262 178.729 112.262Z" fill="#5971A8"/>
<path d="M198.933 121.414C195.473 121.414 193.1 118.634 193.1 115.174C193.1 111.713 195.473 108.915 198.933 108.915C199.737 108.915 200.533 109.075 201.274 109.385C202.016 109.695 202.689 110.149 203.254 110.721L204.256 109.681C203.567 108.966 202.74 108.399 201.825 108.014C200.91 107.629 199.926 107.433 198.933 107.44C194.688 107.44 191.672 110.881 191.672 115.136C191.672 119.39 194.688 122.794 198.933 122.794C199.929 122.8 200.915 122.605 201.833 122.22C202.751 121.835 203.582 121.268 204.275 120.553L203.282 119.532C202.721 120.122 202.047 120.593 201.3 120.916C200.552 121.24 199.747 121.409 198.933 121.414Z" fill="#5971A8"/>
<path d="M211.347 112.262C210.026 112.221 208.743 112.706 207.779 113.609C206.814 114.513 206.248 115.763 206.204 117.084C206.204 117.235 206.204 117.377 206.204 117.528C206.131 118.856 206.588 120.159 207.474 121.151C208.36 122.143 209.603 122.744 210.931 122.822H211.318C212.282 122.854 213.234 122.602 214.056 122.098C214.877 121.594 215.533 120.859 215.942 119.986C215.488 119.873 214.921 119.769 214.486 119.655C214.079 120.295 213.487 120.795 212.788 121.087C212.089 121.38 211.317 121.451 210.576 121.291C209.835 121.131 209.161 120.748 208.645 120.194C208.129 119.639 207.795 118.94 207.688 118.19H216.301V117.518C216.32 114.323 214.24 112.262 211.347 112.262ZM207.688 116.857C207.79 115.967 208.222 115.148 208.9 114.563C209.578 113.978 210.452 113.669 211.347 113.699C212.223 113.679 213.073 113.995 213.724 114.582C214.374 115.169 214.775 115.983 214.845 116.857H207.688Z" fill="#5971A8"/>
<path d="M224.063 112.262C223.382 112.244 222.71 112.41 222.115 112.743C221.521 113.076 221.028 113.563 220.688 114.153V112.517H219.232V122.633H220.688V117.093C220.625 116.26 220.894 115.436 221.436 114.8C221.978 114.165 222.749 113.769 223.581 113.699C223.732 113.689 223.884 113.689 224.035 113.699C225.595 113.699 226.493 114.852 226.493 116.724V122.633H227.949V116.724C228.044 113.963 226.54 112.262 224.063 112.262Z" fill="#5971A8"/>
<path d="M233.716 108.678H232.26V112.479H230.435V113.784H232.26V122.633H233.716V113.784H235.872V112.479H233.716V108.678Z" fill="#5971A8"/>
<path d="M239.956 114.786V112.517H238.5V122.633H239.956V118.852C239.956 116.157 240.798 113.718 242.868 113.718C243.378 113.734 243.88 113.853 244.343 114.068L244.523 112.659C244.016 112.383 243.445 112.246 242.868 112.262C241.384 112.262 240.448 113.046 239.956 114.786Z" fill="#5971A8"/>
<path d="M256.019 117.528C256.019 114.304 253.93 112.262 251.037 112.262C249.718 112.221 248.438 112.705 247.475 113.607C246.513 114.509 245.947 115.756 245.903 117.074C245.903 117.225 245.903 117.377 245.903 117.528C245.831 118.856 246.287 120.159 247.173 121.151C248.059 122.143 249.302 122.744 250.63 122.822H251.008C251.973 122.851 252.924 122.598 253.747 122.094C254.57 121.59 255.228 120.858 255.641 119.986C255.187 119.873 254.62 119.769 254.185 119.655C253.779 120.295 253.186 120.795 252.487 121.087C251.788 121.38 251.016 121.451 250.276 121.291C249.535 121.131 248.861 120.748 248.344 120.194C247.828 119.639 247.494 118.94 247.387 118.19H256C256.019 118.001 256.019 117.745 256.019 117.528ZM247.387 116.857C247.488 115.975 247.914 115.163 248.582 114.579C249.25 113.995 250.112 113.681 250.999 113.699C251.872 113.684 252.717 114.002 253.364 114.589C254.01 115.176 254.409 115.986 254.478 116.857H247.387Z" fill="#5971A8"/>
</svg>
