<svg width="25" height="24" viewBox="0 0 25 24" fill="none" xmlns="http://www.w3.org/2000/svg">
<g clip-path="url(#clip0_273_203)">
<path d="M12.98 2.16373C16.184 2.16373 16.564 2.17573 17.83 2.23373C21.082 2.38173 22.601 3.92473 22.749 7.15273C22.807 8.41773 22.818 8.79773 22.818 12.0017C22.818 15.2067 22.806 15.5857 22.749 16.8507C22.6 20.0757 21.085 21.6217 17.83 21.7697C16.564 21.8277 16.186 21.8397 12.98 21.8397C9.77604 21.8397 9.39604 21.8277 8.13104 21.7697C4.87104 21.6207 3.36004 20.0707 3.21204 16.8497C3.15404 15.5847 3.14204 15.2057 3.14204 12.0007C3.14204 8.79673 3.15504 8.41773 3.21204 7.15173C3.36104 3.92473 4.87604 2.38073 8.13104 2.23273C9.39704 2.17573 9.77604 2.16373 12.98 2.16373ZM12.98 0.000732422C9.72104 0.000732422 9.31304 0.0147324 8.03304 0.0727324C3.67504 0.272732 1.25304 2.69073 1.05304 7.05273C0.994042 8.33373 0.980042 8.74173 0.980042 12.0007C0.980042 15.2597 0.994042 15.6687 1.05204 16.9487C1.25204 21.3067 3.67004 23.7287 8.03204 23.9287C9.31304 23.9867 9.72104 24.0007 12.98 24.0007C16.239 24.0007 16.648 23.9867 17.928 23.9287C22.282 23.7287 24.71 21.3107 24.907 16.9487C24.966 15.6687 24.98 15.2597 24.98 12.0007C24.98 8.74173 24.966 8.33373 24.908 7.05373C24.712 2.69973 22.291 0.273732 17.929 0.0737324C16.648 0.0147324 16.239 0.000732422 12.98 0.000732422ZM12.98 5.83873C9.57704 5.83873 6.81804 8.59773 6.81804 12.0007C6.81804 15.4037 9.57704 18.1637 12.98 18.1637C16.383 18.1637 19.142 15.4047 19.142 12.0007C19.142 8.59773 16.383 5.83873 12.98 5.83873ZM12.98 16.0007C10.771 16.0007 8.98004 14.2107 8.98004 12.0007C8.98004 9.79173 10.771 8.00073 12.98 8.00073C15.189 8.00073 16.98 9.79173 16.98 12.0007C16.98 14.2107 15.189 16.0007 12.98 16.0007ZM19.386 4.15573C18.59 4.15573 17.945 4.80073 17.945 5.59573C17.945 6.39073 18.59 7.03573 19.386 7.03573C20.181 7.03573 20.825 6.39073 20.825 5.59573C20.825 4.80073 20.181 4.15573 19.386 4.15573Z" fill="#1E1E1E"/>
</g>
<defs>
<clipPath id="clip0_273_203">
<rect width="24" height="24" fill="white" transform="translate(0.980042 0.000732422)"/>
</clipPath>
</defs>
</svg>
