<svg width="25" height="24" viewBox="0 0 25 24" fill="none" xmlns="http://www.w3.org/2000/svg">
<g clip-path="url(#clip0_273_207)">
<path d="M19.98 0.000732422H5.98004C3.21904 0.000732422 0.980042 2.23973 0.980042 5.00073V19.0007C0.980042 21.7617 3.21904 24.0007 5.98004 24.0007H19.98C22.742 24.0007 24.98 21.7617 24.98 19.0007V5.00073C24.98 2.23973 22.742 0.000732422 19.98 0.000732422ZM8.98004 19.0007H5.98004V8.00073H8.98004V19.0007ZM7.48004 6.73273C6.51404 6.73273 5.73004 5.94273 5.73004 4.96873C5.73004 3.99473 6.51404 3.20473 7.48004 3.20473C8.44604 3.20473 9.23004 3.99473 9.23004 4.96873C9.23004 5.94273 8.44704 6.73273 7.48004 6.73273ZM20.98 19.0007H17.98V13.3967C17.98 10.0287 13.98 10.2837 13.98 13.3967V19.0007H10.98V8.00073H13.98V9.76573C15.376 7.17973 20.98 6.98873 20.98 12.2417V19.0007Z" fill="#1E1E1E"/>
</g>
<defs>
<clipPath id="clip0_273_207">
<rect width="24" height="24" fill="white" transform="translate(0.980042 0.000732422)"/>
</clipPath>
</defs>
</svg>
