<svg width="99" height="25" viewBox="0 0 99 25" fill="none" xmlns="http://www.w3.org/2000/svg">
<path fill-rule="evenodd" clip-rule="evenodd" d="M89.5804 7.76372C89.2041 6.93435 88.6589 6.31999 87.937 5.92067C87.2151 5.52134 86.355 5.32167 85.349 5.32167C84.4506 5.32167 83.6212 5.52902 82.884 5.95906C82.1391 6.38143 81.5554 6.95738 81.1407 7.67924V0.199524H78.6296V5.62096H74.1986C73.6149 5.41362 72.9622 5.32146 72.2327 5.32146C71.1652 5.32146 70.259 5.52113 69.5218 5.93581C68.7846 6.34282 68.2163 6.88806 67.817 7.56385C67.4177 8.23963 67.218 8.99989 67.218 9.83694C67.218 10.674 67.41 11.4496 67.8093 12.1331C68.0397 12.5324 68.3315 12.878 68.6848 13.1852C68.7096 13.2068 68.7347 13.2283 68.7601 13.2495L67.1643 14.8823C66.9492 15.105 66.8494 15.3584 66.8494 15.6502C66.8494 15.9421 66.9492 16.1878 67.1643 16.3951C67.218 16.4489 67.2718 16.495 67.3332 16.5334C67.3617 16.5561 67.3902 16.5747 67.4218 16.5953L67.4561 16.6178C67.6864 16.7714 67.9475 16.9097 68.247 17.0325C68.0858 17.1554 67.9399 17.2783 67.8093 17.4011C67.3562 17.8235 67.026 18.2689 66.8264 18.7297C66.6267 19.1904 66.5269 19.6435 66.5269 20.0966C66.5269 20.9644 66.7649 21.7016 67.2564 22.3006C67.7402 22.9073 68.4237 23.3527 69.3145 23.6445C70.1976 23.9363 71.219 24.0822 72.3709 24.0822C73.6764 24.0822 74.7438 23.8749 75.5732 23.4602C76.3949 23.0378 77.0092 22.5079 77.4009 21.8629C77.7925 21.2178 77.9922 20.542 77.9922 19.8201C77.9922 19.0522 77.8386 18.3995 77.5237 17.8619C77.2166 17.3243 76.7097 16.902 76.0109 16.5948C75.3044 16.2876 74.3829 16.088 73.2233 16.0035C72.4554 15.9421 71.8256 15.8729 71.3418 15.8038C70.858 15.7424 70.4741 15.6656 70.2053 15.5811C69.9288 15.4967 69.6985 15.3968 69.5218 15.2893C69.4982 15.2704 69.4716 15.2544 69.444 15.2377L69.4438 15.2376L69.4436 15.2375L69.4435 15.2374C69.4264 15.2271 69.4088 15.2165 69.3913 15.2048L70.5259 14.1598C71.0435 14.3015 71.6145 14.3755 72.2327 14.3755C73.2847 14.3755 74.1832 14.1681 74.9281 13.7611C75.673 13.3541 76.2413 12.8089 76.6253 12.1331C77.0092 11.4496 77.2012 10.6894 77.2012 9.83694C77.2012 8.98453 77.0092 8.23963 76.6253 7.56385C76.6253 7.56385 76.5869 7.49473 76.5638 7.46401L78.6296 7.34089V18.2614H81.1407V11.565C81.1407 10.6972 81.2943 9.95234 81.6169 9.34567C81.9317 8.73132 82.3618 8.26288 82.8916 7.94034C83.4292 7.61013 84.0282 7.44886 84.6963 7.44886C85.6869 7.44886 86.4242 7.76372 86.9233 8.37807C87.4148 9.0001 87.6605 9.89859 87.6605 11.0889V18.2614H90.141V10.8355C90.141 9.61445 89.9567 8.59309 89.5804 7.76372ZM61.2051 11.1041C60.8135 10.459 60.2759 9.92912 59.5925 9.52212C58.9013 9.11511 58.1334 8.76186 57.281 8.47772C56.95 8.36861 56.6311 8.26295 56.3251 8.16154L56.3217 8.16043L56.3181 8.15924L56.3173 8.15899C55.98 8.04721 55.6583 7.94063 55.3534 7.84033C54.7621 7.64835 54.2553 7.43332 53.8329 7.20294C53.4029 6.96488 53.0727 6.68842 52.8423 6.35821C52.6042 6.03568 52.489 5.60563 52.489 5.06807C52.489 4.53052 52.6196 4.06975 52.8807 3.68578C53.1341 3.30182 53.495 3.01 53.9481 2.81033C54.3935 2.61067 54.908 2.51852 55.4763 2.53388C56.1598 2.53388 56.7357 2.67211 57.2042 2.94856C57.6726 3.22502 58.0259 3.57827 58.2639 4.016C58.4943 4.44604 58.6095 4.89145 58.6095 5.34453H61.2743C61.2512 4.35389 61.0055 3.4938 60.514 2.75658C60.0302 2.02704 59.3698 1.4434 58.525 1.02872C57.6803 0.61403 56.682 0.399007 55.5224 0.399007C54.3628 0.399007 53.3952 0.60635 52.5428 1.01336C51.6904 1.42804 51.03 1.99632 50.5692 2.71818C50.1084 3.44772 49.878 4.30781 49.878 5.29078C49.878 6.45036 50.2159 7.38725 50.8994 8.10143C51.5752 8.82329 52.6042 9.41461 53.9942 9.88305C54.2299 9.95985 54.4628 10.0348 54.693 10.1089C55.1304 10.2497 55.5579 10.3872 55.9755 10.5281C56.6129 10.7355 57.1658 10.9658 57.6342 11.2269C58.1027 11.488 58.4713 11.8106 58.7477 12.2022C59.0242 12.6016 59.1624 13.1007 59.1624 13.7227C59.1624 14.2603 59.0319 14.7287 58.7631 15.1434C58.4943 15.5504 58.1027 15.873 57.5958 16.1034C57.0813 16.3414 56.4823 16.4566 55.7758 16.4566C54.9772 16.4566 54.2937 16.303 53.7331 15.9958C53.1725 15.681 52.7425 15.2663 52.443 14.7364C52.1358 14.2142 51.9899 13.6306 51.9899 12.9932H49.3559C49.3559 14.1144 49.6246 15.0974 50.1545 15.9344C50.6921 16.7638 51.4446 17.4165 52.4122 17.8773C53.3875 18.3381 54.501 18.5684 55.7758 18.5684C57.0506 18.5684 58.2255 18.3304 59.1163 17.8466C59.9995 17.3705 60.6676 16.7561 61.1207 16.0035C61.5737 15.2509 61.7965 14.4446 61.7965 13.5692C61.7965 12.5708 61.6045 11.7415 61.2051 11.1041ZM10.1755 16.2802H3.18725V0.698678H0.676086V18.2614H11.2122V17.3169C11.2122 16.7409 10.7514 16.2802 10.1755 16.2802ZM19.913 5.62121V12.5941C19.913 13.4465 19.7978 14.1684 19.5674 14.752C19.3294 15.3356 18.9761 15.7734 18.5077 16.0652C18.0392 16.3647 17.4479 16.5106 16.7261 16.5106C16.0042 16.5106 15.3822 16.3647 14.8984 16.0652C14.4146 15.7734 14.0536 15.3356 13.8156 14.752C13.5852 14.1684 13.47 13.4465 13.47 12.5941V5.62121H10.9819V12.7707C10.9819 14.6752 11.4811 16.1189 12.464 17.0942C13.4547 18.0772 14.8753 18.5687 16.7261 18.5687C18.5768 18.5687 19.9361 18.0772 20.9344 17.0942C21.925 16.1189 22.4242 14.6752 22.4242 12.7707V5.62121H19.913ZM40.7241 5.92046C41.4459 6.31979 42.0065 6.93414 42.3905 7.74815C42.7745 8.56985 42.9665 9.58352 42.9665 10.7892V18.2612H40.486V11.0349C40.486 9.8523 40.248 8.95381 39.7642 8.35482C39.288 7.74815 38.6046 7.44865 37.6984 7.44865C37.0764 7.44865 36.5311 7.60992 36.0397 7.92478C35.5559 8.24731 35.1796 8.70807 34.9031 9.32242C34.6266 9.9291 34.4884 10.674 34.4884 11.5418V18.2612H31.9773V11.0349C31.9773 9.8523 31.7392 8.95381 31.2477 8.35482C30.7639 7.74815 30.0728 7.44865 29.1666 7.44865C28.5676 7.44865 28.0301 7.60992 27.5616 7.92478C27.0932 8.24731 26.7169 8.70807 26.4174 9.32242C26.1256 9.9291 25.9797 10.674 25.9797 11.5418V18.2612H23.4762V5.62096H25.1196C25.4651 5.62096 25.757 5.88974 25.7954 6.23531L25.9105 7.37954C26.3099 6.74215 26.8398 6.23531 27.5155 5.8667C28.1836 5.50577 28.9285 5.32146 29.7426 5.32146C30.3953 5.32146 30.9789 5.40594 31.5011 5.5672C32.0233 5.73615 32.4764 5.99725 32.8834 6.3505C33.2828 6.69607 33.6053 7.1338 33.8587 7.64832C34.2964 6.91878 34.8954 6.34282 35.6557 5.93581C36.4159 5.52113 37.2376 5.32146 38.1285 5.32146C39.1268 5.32146 39.9945 5.52113 40.7241 5.92046ZM72.2327 12.3711C73.0543 12.3711 73.6994 12.1561 74.1755 11.7261C74.6517 11.3037 74.8897 10.6817 74.8897 9.85998C74.8897 9.03829 74.6517 8.41626 74.1755 7.99389C73.6994 7.56384 73.0313 7.34882 72.2327 7.34882C71.434 7.34882 70.7736 7.56384 70.2667 7.99389C69.7522 8.41626 69.4988 9.03829 69.4988 9.85998C69.4988 10.6817 69.7445 11.3037 70.236 11.7261C70.7352 12.1561 71.4109 12.3711 72.2327 12.3711ZM74.091 21.8245C74.5672 21.6402 74.9358 21.3867 75.2046 21.0642C75.4734 20.734 75.6116 20.35 75.6116 19.8969C75.6116 19.3287 75.4042 18.8679 75.0049 18.5146C74.6056 18.1614 73.8376 17.9541 72.7011 17.8849C71.8564 17.8312 71.1191 17.739 70.4894 17.6315C69.9365 17.908 69.5449 18.2152 69.3222 18.553C69.0303 18.9985 68.8844 19.4208 68.8844 19.8201C68.8844 20.3347 69.038 20.7647 69.3375 21.0949C69.637 21.4328 70.0517 21.6862 70.5893 21.8552C71.1268 22.0164 71.7028 22.1009 72.3709 22.1009C73.039 22.1009 73.6149 22.0088 74.091 21.8245ZM98.7495 5.6212V7.72535H95.1863V14.2759C95.1863 14.9977 95.3399 15.4815 95.6394 15.7426C95.9389 16.0037 96.4611 16.1343 97.1983 16.1343H98.6497V18.2615H96.5916C95.793 18.2615 95.0941 18.1386 94.5105 17.8852C93.9269 17.6394 93.4738 17.2171 93.1589 16.6334C92.8364 16.0498 92.6751 15.2511 92.6751 14.2528V7.72535H91.4004C90.9012 7.72535 90.4942 7.31834 90.4942 6.81918V5.6212H92.6751L93.0054 2.43425H95.1863V5.6212H98.7495ZM46.691 2.16546C46.4146 1.889 46.092 1.75077 45.7234 1.75077C45.3548 1.75077 45.04 1.889 44.7712 2.16546C44.5024 2.44192 44.3718 2.76445 44.3718 3.13306C44.3718 3.50167 44.5024 3.81653 44.7712 4.08531C45.04 4.35409 45.3548 4.49232 45.7234 4.49232C46.092 4.49232 46.4146 4.35409 46.691 4.08531C46.9675 3.81653 47.1057 3.50167 47.1057 3.13306C47.1057 2.76445 46.9675 2.44192 46.691 2.16546ZM46.9828 18.2615V5.97444H46.9752C46.9752 5.85925 46.8753 5.75941 46.7525 5.75941C46.7294 5.75941 46.7141 5.75941 46.691 5.76709C46.691 5.76709 46.6833 5.76709 46.6833 5.77477C46.6757 5.77477 46.6603 5.78245 46.6603 5.78245C46.3608 5.913 46.046 5.97444 45.7234 5.97444C45.4009 5.97444 45.0707 5.913 44.7712 5.77477C44.7481 5.76709 44.7174 5.75941 44.6867 5.75941C44.5715 5.75941 44.4717 5.85925 44.4717 5.97444V18.2615H46.9828ZM65.0831 2.16546C64.8067 1.889 64.4841 1.75077 64.1155 1.75077C63.7469 1.75077 63.432 1.889 63.1633 2.16546C62.8945 2.44192 62.7639 2.76445 62.7639 3.13306C62.7639 3.50167 62.8945 3.81653 63.1633 4.08531C63.432 4.35409 63.7469 4.49232 64.1155 4.49232C64.4841 4.49232 64.8067 4.35409 65.0831 4.08531C65.3596 3.81653 65.4978 3.50167 65.4978 3.13306C65.4978 2.76445 65.3596 2.44192 65.0831 2.16546ZM65.3749 18.2615V5.97444H65.3672C65.3672 5.85925 65.2674 5.75941 65.1445 5.75941C65.1215 5.75941 65.1062 5.75941 65.0831 5.76709C65.0831 5.76709 65.0754 5.76709 65.0754 5.77477C65.0678 5.77477 65.0524 5.78245 65.0524 5.78245C64.7529 5.913 64.438 5.97444 64.1155 5.97444C63.793 5.97444 63.4628 5.913 63.1633 5.77477C63.1402 5.76709 63.1095 5.75941 63.0788 5.75941C62.9636 5.75941 62.8638 5.85925 62.8638 5.97444V18.2615H65.3749Z" fill="white"/>
</svg>
