<svg width="34" height="36" viewBox="0 0 34 36" fill="none" xmlns="http://www.w3.org/2000/svg">
<path d="M30.4968 0.648742C30.1339 -0.215189 28.9071 -0.215189 28.5443 0.648742L26.0821 9.04615C25.8488 9.60771 26.3153 10.2125 26.9115 10.1347C28.6393 9.90144 30.3931 9.90144 32.121 10.1347C32.7257 10.2125 33.1836 9.60771 32.9503 9.04615L30.4881 0.648742H30.4968Z" fill="#0A050A"/>
<path d="M18.4707 6.23844C17.6932 5.71144 16.6651 6.37667 16.8379 7.30107L18.0042 13.5905C18.1165 14.1866 18.8336 14.4371 19.2915 14.0484C20.6133 12.908 22.0819 11.9577 23.6543 11.206C24.1986 10.9469 24.2591 10.1866 23.758 9.84103L18.4707 6.23844Z" fill="#0A050A"/>
<path d="M8.91596 15.1195C7.97427 15.1022 7.48183 16.2253 8.12978 16.9078L13.9613 22.005C14.376 22.4456 15.119 22.2642 15.2918 21.6854C15.7842 20.0093 16.4926 18.4111 17.3998 16.9251C17.7194 16.4067 17.3566 15.7415 16.7432 15.7242L8.92459 15.1281L8.91596 15.1195Z" fill="#0A050A"/>
<path d="M12.1296 25.4348C8.86396 25.4348 8.45791 24.545 4.88124 21.5903C2.67821 19.7761 0.00866699 21.5299 0.00866699 23.9921V32.2512C0.00866699 34.1778 1.69333 35.9921 3.59398 35.9921H29.486C31.3866 35.9921 33.2873 34.3679 33.2873 32.2685V15.8106C33.1059 13.8927 32.1555 13.5212 30.851 13.5212C17.2354 13.5212 19.7927 25.4262 12.1296 25.4262V25.4348Z" fill="#0A050A"/>
</svg>
