<svg width="30" height="33" viewBox="0 0 30 33" fill="none" xmlns="http://www.w3.org/2000/svg">
<path d="M27.1083 1.41091C26.7857 0.642976 25.6953 0.642976 25.3727 1.41091L23.1841 8.87528C22.9768 9.37444 23.3914 9.912 23.9213 9.84288C25.4572 9.63554 27.0161 9.63554 28.552 9.84288C29.0895 9.912 29.4966 9.37444 29.2892 8.87528L27.1006 1.41091H27.1083Z" fill="white"/>
<path d="M16.4186 6.37947C15.7274 5.91103 14.8136 6.50234 14.9672 7.32404L16.0039 12.9146C16.1037 13.4445 16.7411 13.6672 17.1481 13.3216C18.3231 12.308 19.6285 11.4632 21.0262 10.7951C21.51 10.5647 21.5638 9.88895 21.1184 9.58178L16.4186 6.37947Z" fill="white"/>
<path d="M7.92516 14.2739C7.0881 14.2585 6.65038 15.2568 7.22633 15.8635L12.4099 20.3943C12.7785 20.786 13.439 20.6247 13.5925 20.1102C14.0303 18.6204 14.66 17.1997 15.4663 15.8788C15.7505 15.4181 15.4279 14.8268 14.8827 14.8114L7.93284 14.2815L7.92516 14.2739Z" fill="white"/>
<path d="M10.7819 23.4431C7.87906 23.4431 7.51813 22.6521 4.33886 20.0258C2.38062 18.4131 0.00769043 19.972 0.00769043 22.1606V29.5021C0.00769043 31.2146 1.50517 32.8273 3.19464 32.8273H26.2098C27.8992 32.8273 29.5887 31.3836 29.5887 29.5175V14.8882C29.4274 13.1834 28.5827 12.8532 27.4231 12.8532C15.3204 12.8532 17.5935 23.4354 10.7819 23.4354V23.4431Z" fill="white"/>
</svg>
