<svg width="81" height="80" viewBox="0 0 81 80" fill="none" xmlns="http://www.w3.org/2000/svg">
<rect x="0.5" width="80" height="80" rx="16" fill="white"/>
<path d="M65.913 9.15222C65.2678 7.61597 63.0863 7.61597 62.4411 9.15222L58.0628 24.0845C57.648 25.0831 58.4776 26.1585 59.5376 26.0202C62.6101 25.6054 65.7287 25.6054 68.8012 26.0202C69.8765 26.1585 70.6907 25.0831 70.276 24.0845L65.8977 9.15222H65.913Z" fill="#1C79F2"/>
<path d="M44.5289 19.0917C43.1463 18.1546 41.3181 19.3375 41.6254 20.9813L43.6993 32.1651C43.899 33.2251 45.1741 33.6706 45.9883 32.9793C48.3388 30.9515 50.9504 29.2616 53.7464 27.9251C54.7142 27.4642 54.8217 26.1123 53.9307 25.4978L44.5289 19.0917Z" fill="#1C79F2"/>
<path d="M27.0378 33.3954C25.3705 33.2377 24.3459 35.1627 25.4027 36.4602L35.055 46.2844C35.7309 47.1216 37.0727 46.9001 37.4571 45.8971C38.5563 42.9918 40.028 40.2535 41.8368 37.7411C42.4735 36.8651 41.9198 35.6366 40.8346 35.5233L27.052 33.4118L27.0378 33.3954Z" fill="#1C79F2"/>
<path d="M33.2525 53.2271C27.4455 53.2271 26.7235 51.6448 20.3634 46.3908C16.446 43.1647 11.699 46.2833 11.699 50.6616V65.3481C11.699 68.7739 14.6947 72 18.0744 72H64.1157C67.4954 72 70.8752 69.1119 70.8752 65.3788V36.1133C70.5525 32.7029 68.8627 32.0423 66.5429 32.0423C42.3317 32.0423 46.879 53.2117 33.2525 53.2117V53.2271Z" fill="#1C79F2"/>
</svg>
