<svg width="112" height="28" viewBox="0 0 112 28" fill="none" xmlns="http://www.w3.org/2000/svg">
<path fill-rule="evenodd" clip-rule="evenodd" d="M100.903 8.79549C100.48 7.86244 99.8663 7.1713 99.0542 6.72205C98.2421 6.27281 97.2745 6.04819 96.1427 6.04819C95.1319 6.04819 94.1989 6.28145 93.3695 6.76525C92.5315 7.24041 91.8749 7.88836 91.4084 8.70045V0.285767H88.5833V6.38492H83.5984C82.9418 6.15166 82.2075 6.04799 81.3867 6.04799C80.1859 6.04799 79.1665 6.27261 78.3371 6.73913C77.5077 7.19701 76.8684 7.81041 76.4192 8.57066C75.9699 9.33092 75.7453 10.1862 75.7453 11.1279C75.7453 12.0696 75.9613 12.9422 76.4105 13.7111C76.6697 14.1603 76.998 14.5491 77.3954 14.8946C77.4233 14.919 77.4515 14.9432 77.4801 14.9671L75.6848 16.8039C75.4429 17.0545 75.3306 17.3396 75.3306 17.6679C75.3306 17.9961 75.4429 18.2726 75.6848 18.5059C75.7453 18.5663 75.8058 18.6182 75.8749 18.6614C75.9069 18.687 75.9389 18.7079 75.9745 18.7311C75.9869 18.7391 75.9997 18.7475 76.0131 18.7564C76.2723 18.9292 76.566 19.0847 76.9029 19.2229C76.7215 19.3612 76.5574 19.4994 76.4105 19.6376C75.9008 20.1128 75.5293 20.6139 75.3047 21.1322C75.0801 21.6506 74.9678 22.1603 74.9678 22.67C74.9678 23.6463 75.2356 24.4756 75.7885 25.1495C76.3328 25.832 77.1017 26.3331 78.1038 26.6614C79.0973 26.9897 80.2464 27.1538 81.5423 27.1538C83.0109 27.1538 84.2118 26.9206 85.1449 26.454C86.0693 25.9789 86.7604 25.3828 87.201 24.6571C87.6416 23.9314 87.8662 23.1711 87.8662 22.359C87.8662 21.4951 87.6934 20.7607 87.3392 20.156C86.9937 19.5512 86.4235 19.0761 85.6373 18.7305C84.8425 18.3849 83.8058 18.1603 82.5012 18.0653C81.6373 17.9962 80.9289 17.9184 80.3846 17.8406C79.8403 17.7715 79.4083 17.6851 79.106 17.5901C78.795 17.4951 78.5358 17.3828 78.3371 17.2618C78.3105 17.2405 78.2806 17.2225 78.2495 17.2038C78.23 17.1921 78.2101 17.1801 78.1902 17.1668L79.4667 15.9911C80.049 16.1505 80.6914 16.2337 81.3867 16.2337C82.5703 16.2337 83.5811 16.0005 84.4192 15.5426C85.2572 15.0847 85.8965 14.4713 86.3284 13.7111C86.7604 12.9422 86.9764 12.0869 86.9764 11.1279C86.9764 10.1689 86.7604 9.33092 86.3284 8.57066C86.3284 8.57066 86.2852 8.49291 86.2593 8.45835L88.5833 8.31984V20.6054H91.4084V13.0719C91.4084 12.0957 91.5812 11.2577 91.944 10.5752C92.2982 9.88404 92.782 9.35704 93.3781 8.99419C93.9829 8.6227 94.6568 8.44128 95.4084 8.44128C96.5229 8.44128 97.3522 8.79549 97.9138 9.48663C98.4667 10.1864 98.7431 11.1972 98.7431 12.5363V20.6054H101.534V12.2512C101.534 10.8776 101.326 9.72853 100.903 8.79549ZM68.9807 12.5534C68.5401 11.8277 67.9354 11.2316 67.1665 10.7737C66.3889 10.3158 65.525 9.91843 64.566 9.59877C64.191 9.47513 63.8297 9.35542 63.4831 9.24058L63.4815 9.24004L63.479 9.23921L63.4755 9.23806C63.0983 9.11309 62.7386 8.9939 62.3976 8.88171C61.7323 8.66573 61.1621 8.42382 60.687 8.16464C60.2032 7.89683 59.8317 7.58581 59.5725 7.21432C59.3047 6.85147 59.1751 6.36767 59.1751 5.76292C59.1751 5.15817 59.322 4.63981 59.6157 4.20784C59.9008 3.77588 60.3069 3.44758 60.8166 3.22296C61.3176 2.99834 61.8965 2.89467 62.5358 2.91195C63.3047 2.91195 63.9526 3.06745 64.4796 3.37847C65.0066 3.68948 65.404 4.08689 65.6719 4.57933C65.931 5.06313 66.0606 5.56421 66.0606 6.07393H69.0585C69.0325 4.95946 68.7561 3.99186 68.2032 3.16249C67.6589 2.34175 66.9159 1.68516 65.9656 1.21864C65.0153 0.752118 63.8922 0.510217 62.5876 0.510217C61.2831 0.510217 60.1945 0.743478 59.2356 1.20136C58.2766 1.66788 57.5336 2.30719 57.0153 3.11929C56.4969 3.94002 56.2377 4.90763 56.2377 6.01346C56.2377 7.31799 56.6179 8.37199 57.3868 9.17544C58.147 9.98754 59.3047 10.6528 60.8684 11.1798C61.1335 11.2661 61.3955 11.3505 61.6545 11.4338L61.6546 11.4338L61.655 11.434L61.6552 11.4341C62.147 11.5923 62.6278 11.7471 63.0973 11.9055C63.8144 12.1387 64.4364 12.3979 64.9634 12.6916C65.4904 12.9854 65.9051 13.3482 66.2161 13.7888C66.5272 14.2381 66.6827 14.7996 66.6827 15.4994C66.6827 16.1042 66.5358 16.6312 66.2334 17.0977C65.931 17.5556 65.4904 17.9184 64.9202 18.1776C64.3414 18.4454 63.6675 18.575 62.8727 18.575C61.9742 18.575 61.2053 18.4022 60.5747 18.0567C59.944 17.7024 59.4602 17.2359 59.1233 16.6398C58.7777 16.0523 58.6135 15.3957 58.6135 14.6787H55.6503C55.6503 15.94 55.9526 17.0459 56.5488 17.9875C57.1535 18.9206 58.0002 19.6549 59.0887 20.1733C60.1859 20.6916 61.4386 20.9508 62.8727 20.9508C64.3069 20.9508 65.6287 20.683 66.6308 20.1387C67.6243 19.6031 68.376 18.9119 68.8857 18.0653C69.3954 17.2186 69.6459 16.3115 69.6459 15.3266C69.6459 14.2035 69.43 13.2705 68.9807 12.5534ZM11.5724 18.3765H3.71067V0.847388H0.88562V20.6055H12.7388V19.5429C12.7388 18.8949 12.2204 18.3765 11.5724 18.3765ZM22.5269 6.38513V14.2296C22.5269 15.1886 22.3974 16.0007 22.1382 16.6573C21.8704 17.3139 21.4729 17.8063 20.9459 18.1346C20.4189 18.4715 19.7537 18.6357 18.9416 18.6357C18.1295 18.6357 17.4298 18.4715 16.8855 18.1346C16.3412 17.8063 15.9351 17.3139 15.6673 16.6573C15.4082 16.0007 15.2786 15.1886 15.2786 14.2296V6.38513H12.4794V14.4283C12.4794 16.5709 13.041 18.1951 14.1468 19.2923C15.2613 20.3981 16.8596 20.951 18.9416 20.951C21.0237 20.951 22.5529 20.3981 23.676 19.2923C24.7904 18.1951 25.352 16.5709 25.352 14.4283V6.38513H22.5269ZM45.9399 6.72185C46.752 7.1711 47.3827 7.86224 47.8147 8.77801C48.2466 9.70241 48.4626 10.8428 48.4626 12.1992V20.6052H45.6721V12.4756C45.6721 11.1452 45.4043 10.1344 44.86 9.46051C44.3244 8.77801 43.5555 8.44108 42.5361 8.44108C41.8363 8.44108 41.2229 8.6225 40.67 8.97671C40.1257 9.33956 39.7024 9.85792 39.3913 10.5491C39.0803 11.2316 38.9248 12.0696 38.9248 13.0458V20.6052H36.0998V12.4756C36.0998 11.1452 35.832 10.1344 35.279 9.46051C34.7348 8.77801 33.9572 8.44108 32.9378 8.44108C32.2639 8.44108 31.6592 8.6225 31.1322 8.97671C30.6052 9.33956 30.1818 9.85792 29.8449 10.5491C29.5166 11.2316 29.3525 12.0696 29.3525 13.0458V20.6052H26.5361V6.38492H28.3849C28.7736 6.38492 29.1019 6.6873 29.1451 7.07606L29.2747 8.36332C29.724 7.64626 30.3201 7.07606 31.0803 6.66138C31.832 6.25533 32.67 6.04799 33.5857 6.04799C34.3201 6.04799 34.9767 6.14302 35.5641 6.32444C36.1516 6.51451 36.6613 6.80825 37.1192 7.20565C37.5685 7.59442 37.9313 8.08686 38.2164 8.6657C38.7089 7.84496 39.3827 7.19701 40.238 6.73913C41.0933 6.27261 42.0177 6.04799 43.0199 6.04799C44.143 6.04799 45.1192 6.27261 45.9399 6.72185ZM81.3867 13.9789C82.3112 13.9789 83.0369 13.737 83.5725 13.2532C84.1081 12.778 84.376 12.0782 84.376 11.1538C84.376 10.2294 84.1081 9.52963 83.5725 9.05447C83.0369 8.57066 82.2852 8.32876 81.3867 8.32876C80.4883 8.32876 79.7453 8.57066 79.1751 9.05447C78.5963 9.52963 78.3112 10.2294 78.3112 11.1538C78.3112 12.0782 78.5876 12.778 79.1405 13.2532C79.7021 13.737 80.4623 13.9789 81.3867 13.9789ZM83.4775 24.6139C84.0131 24.4065 84.4278 24.1214 84.7302 23.7586C85.0325 23.3871 85.1881 22.9551 85.1881 22.4454C85.1881 21.8061 84.9548 21.2877 84.5055 20.8903C84.0563 20.4929 83.1924 20.2596 81.9137 20.1819C80.9634 20.1214 80.134 20.0177 79.4256 19.8968C78.8036 20.2078 78.363 20.5534 78.1125 20.9335C77.7842 21.4346 77.62 21.9098 77.62 22.359C77.62 22.9378 77.7928 23.4216 78.1297 23.7931C78.4667 24.1733 78.9332 24.4584 79.5379 24.6484C80.1427 24.8298 80.7906 24.9249 81.5423 24.9249C82.2939 24.9249 82.9418 24.8212 83.4775 24.6139ZM111.218 6.38519V8.75236H107.209V16.1217C107.209 16.9338 107.382 17.4781 107.719 17.7718C108.056 18.0655 108.644 18.2124 109.473 18.2124H111.106V20.6055H108.79C107.892 20.6055 107.106 20.4673 106.449 20.1822C105.793 19.9057 105.283 19.4305 104.929 18.774C104.566 18.1174 104.384 17.2189 104.384 16.0958V8.75236H102.95C102.389 8.75236 101.931 8.29448 101.931 7.73292V6.38519H104.384L104.756 2.79988H107.209V6.38519H111.218ZM52.6528 2.49747C52.3418 2.18645 51.9789 2.03094 51.5642 2.03094C51.1496 2.03094 50.7954 2.18645 50.493 2.49747C50.1906 2.80848 50.0437 3.17133 50.0437 3.58602C50.0437 4.00071 50.1906 4.35492 50.493 4.65729C50.7954 4.95967 51.1496 5.11518 51.5642 5.11518C51.9789 5.11518 52.3418 4.95967 52.6528 4.65729C52.9638 4.35492 53.1193 4.00071 53.1193 3.58602C53.1193 3.17133 52.9638 2.80848 52.6528 2.49747ZM52.9809 20.6056V6.78269H52.9722C52.9722 6.6531 52.8599 6.54078 52.7217 6.54078C52.6958 6.54078 52.6785 6.54078 52.6526 6.54942C52.6526 6.54942 52.644 6.54942 52.644 6.55806C52.6353 6.55806 52.618 6.5667 52.618 6.5667C52.2811 6.71357 51.9269 6.78269 51.564 6.78269C51.2012 6.78269 50.8297 6.71357 50.4928 6.55806C50.4669 6.54942 50.4323 6.54078 50.3977 6.54078C50.2681 6.54078 50.1558 6.6531 50.1558 6.78269V20.6056H52.9809ZM73.3436 2.49758C73.0326 2.18656 72.6697 2.03105 72.255 2.03105C71.8403 2.03105 71.4861 2.18656 71.1837 2.49758C70.8814 2.80859 70.7345 3.17144 70.7345 3.58613C70.7345 4.00082 70.8814 4.35503 71.1837 4.6574C71.4861 4.95978 71.8403 5.11529 72.255 5.11529C72.6697 5.11529 73.0326 4.95978 73.3436 4.6574C73.6546 4.35503 73.8101 4.00082 73.8101 3.58613C73.8101 3.17144 73.6546 2.80859 73.3436 2.49758ZM73.6715 20.6056V6.78267H73.6629C73.6629 6.65308 73.5506 6.54077 73.4123 6.54077C73.3864 6.54077 73.3691 6.54077 73.3432 6.54941C73.3432 6.54941 73.3346 6.54941 73.3346 6.55805C73.3259 6.55805 73.3087 6.56669 73.3087 6.56669C72.9717 6.71356 72.6175 6.78267 72.2547 6.78267C71.8918 6.78267 71.5203 6.71356 71.1834 6.55805C71.1575 6.54941 71.1229 6.54077 71.0884 6.54077C70.9588 6.54077 70.8465 6.65308 70.8465 6.78267V20.6056H73.6715Z" fill="#0A050A"/>
</svg>
