<svg width="25" height="24" viewBox="0 0 25 24" fill="none" xmlns="http://www.w3.org/2000/svg">
<path d="M7.5 8.5H2.5V6.5H7.5V8.5ZM7.5 11.5H2.5V13.5H7.5V11.5ZM21.09 18.5L17.26 14.67C16.46 15.19 15.52 15.5 14.5 15.5C11.74 15.5 9.5 13.26 9.5 10.5C9.5 7.74 11.74 5.5 14.5 5.5C17.26 5.5 19.5 7.74 19.5 10.5C19.5 11.52 19.19 12.46 18.67 13.25L22.5 17.09L21.09 18.5ZM17.5 10.5C17.5 8.85 16.15 7.5 14.5 7.5C12.85 7.5 11.5 8.85 11.5 10.5C11.5 12.15 12.85 13.5 14.5 13.5C16.15 13.5 17.5 12.15 17.5 10.5ZM2.5 18.5H12.5V16.5H2.5V18.5Z" fill="#F2F2F2"/>
</svg>
