<svg width="25" height="24" viewBox="0 0 25 24" fill="none" xmlns="http://www.w3.org/2000/svg">
<path d="M12.5 2C6.98 2 2.5 6.48 2.5 12C2.5 17.52 6.98 22 12.5 22H20.5C21.6 22 22.5 21.1 22.5 20V12C22.5 6.48 18.02 2 12.5 2ZM12.5 20C9.61 20 7.07 18.46 5.67 16.16L8.62 13.21L11.91 16L16.5 11.42V13H18.5V8H13.5V10H15.08L11.8 13.28L8.5 10.5L4.81 14.2C4.61 13.5 4.5 12.76 4.5 12C4.5 7.59 8.09 4 12.5 4C16.91 4 20.5 7.59 20.5 12C20.5 16.41 16.91 20 12.5 20ZM20 20.5C19.45 20.5 19 20.05 19 19.5C19 18.95 19.45 18.5 20 18.5C20.55 18.5 21 18.95 21 19.5C21 20.05 20.55 20.5 20 20.5Z" fill="#F2F2F2"/>
</svg>
