<svg width="32" height="32" viewBox="0 0 32 32" fill="none" xmlns="http://www.w3.org/2000/svg">
<path d="M16 7.99998C17.4666 7.99998 18.6666 9.19998 18.6666 10.6666C18.6666 12.1333 17.4666 13.3333 16 13.3333C14.5333 13.3333 13.3333 12.1333 13.3333 10.6666C13.3333 9.19998 14.5333 7.99998 16 7.99998ZM16 21.3333C19.6 21.3333 23.7333 23.0533 24 24H7.99998C8.30665 23.04 12.4133 21.3333 16 21.3333ZM16 5.33331C13.0533 5.33331 10.6666 7.71998 10.6666 10.6666C10.6666 13.6133 13.0533 16 16 16C18.9466 16 21.3333 13.6133 21.3333 10.6666C21.3333 7.71998 18.9466 5.33331 16 5.33331ZM16 18.6666C12.44 18.6666 5.33331 20.4533 5.33331 24V26.6666H26.6666V24C26.6666 20.4533 19.56 18.6666 16 18.6666Z" fill="white"/>
</svg>
